<svg width="512" height="512" viewBox="0 0 512 512" fill="none" xmlns="http://www.w3.org/2000/svg">
<path d="M488 48H24C10.8 48 0 58.8 0 72V432C0 445.2 10.8 456 24 456H488C501.2 456 512 445.2 512 432V72C512 58.8 501.2 48 488 48ZM496 432C496 436.4 492.4 440 488 440H24C19.6 440 16 436.4 16 432V72C16 67.6 19.6 64 24 64H488C492.4 64 496 67.6 496 72V432Z" fill="black"/>
<path d="M40 136H80C84.418 136 88 132.422 88 128V88C88 83.578 84.418 80 80 80H40C35.582 80 32 83.578 32 88V128C32 132.422 35.582 136 40 136ZM112 136H152C156.418 136 160 132.422 160 128V88C160 83.578 156.418 80 152 80H112C107.582 80 104 83.578 104 88V128C104 132.422 107.582 136 112 136ZM472 80H184C179.582 80 176 83.578 176 88V128C176 132.422 179.582 136 184 136H472C476.418 136 480 132.422 480 128V88C480 83.578 476.418 80 472 80ZM472 152H40C35.6 152 32 155.6 32 160V336C32 340.4 35.6 344 40 344H472C476.4 344 480 340.4 480 336V160C480 155.6 476.4 152 472 152ZM320 328H48V168H320V328ZM448 296H352C347.6 296 344 292.4 344 288C344 283.6 347.6 280 352 280H448C452.4 280 456 283.6 456 288C456 292.4 452.4 296 448 296ZM448 264H352C347.6 264 344 260.4 344 256C344 251.6 347.6 248 352 248H448C452.4 248 456 251.6 456 256C456 260.4 452.4 264 448 264ZM448 232H352C347.6 232 344 228.4 344 224C344 219.6 347.6 216 352 216H448C452.4 216 456 219.6 456 224C456 228.4 452.4 232 448 232ZM448 200H352C347.6 200 344 196.4 344 192C344 187.6 347.6 184 352 184H448C452.4 184 456 187.6 456 192C456 196.4 452.4 200 448 200Z" fill="black"/>
<path d="M196.96 241.76L156.96 209.76C154.56 207.84 151.28 207.44 148.56 208.8C145.76 210.16 144 212.96 144 216V280C144 283.04 145.76 285.84 148.56 287.2C149.6 287.76 150.8 288 152 288C153.76 288 155.52 287.44 156.96 286.24L196.96 254.24C198.88 252.72 200 250.4 200 248C200 245.6 198.88 243.28 196.96 241.76ZM160 263.36V232.64L179.2 248L160 263.36ZM456 360H368C363.582 360 360 363.578 360 368V416C360 420.422 363.582 424 368 424H456C460.418 424 464 420.422 464 416V368C464 363.578 460.418 360 456 360ZM40 376H104C108.418 376 112 372.422 112 368C112 363.578 108.418 360 104 360H40C35.582 360 32 363.578 32 368C32 372.422 35.582 376 40 376ZM344 360H144C139.582 360 136 363.578 136 368C136 372.422 139.582 376 144 376H344C348.418 376 352 372.422 352 368C352 363.578 348.418 360 344 360ZM264 392H40C35.582 392 32 395.578 32 400C32 404.422 35.582 408 40 408H264C268.418 408 272 404.422 272 400C272 395.578 268.418 392 264 392ZM344 392H304C299.582 392 296 395.578 296 400C296 404.422 299.582 408 304 408H344C348.418 408 352 404.422 352 400C352 395.578 348.418 392 344 392Z" fill="black"/>
</svg>
