<svg width="512" height="512" viewBox="0 0 512 512" fill="none" xmlns="http://www.w3.org/2000/svg">
<path d="M117.333 298.667V213.333C117.333 201.551 126.885 192 138.667 192H256C267.783 192 277.334 201.551 277.334 213.333V298.667C277.334 310.449 267.783 320 256 320H138.667C126.885 320 117.333 310.449 117.333 298.667ZM394.667 192L330.667 234.667V277.333L394.667 320V192Z" stroke="white" stroke-width="12" stroke-linejoin="round"/>
<path d="M58 106.667V405.333C58 432.212 79.7889 454 106.667 454H405.333C432.212 454 454 432.212 454 405.333V106.667C454 79.7889 432.212 58 405.333 58H106.667C79.7888 58 58 79.7888 58 106.667Z" stroke="white" stroke-width="12" stroke-linejoin="round"/>
</svg>
