<svg width="512" height="512" viewBox="0 0 512 512" fill="none" xmlns="http://www.w3.org/2000/svg">
<g clip-path="url(#clip0_1037_2)">
<path d="M448 514H450V512V298.667C450 295.307 448.665 292.085 446.29 289.71C443.915 287.335 440.693 286 437.333 286C433.974 286 430.752 287.335 428.377 289.71C426.001 292.085 424.667 295.307 424.667 298.667V488.667H322V352V350H320H192H190V352V488.667H87.3333V288C87.3333 284.641 85.9988 281.419 83.6234 279.043C81.2479 276.668 78.0261 275.333 74.6667 275.333C71.3073 275.333 68.0854 276.668 65.71 279.043C63.3345 281.419 62 284.641 62 288V512V514H64H213.333H215.333V512V375.333H296.667V512V514H298.667H448Z" fill="black" stroke="black" stroke-width="4"/>
<path d="M256 60.1969L492.579 286.49L501.336 290C503.865 290 506.336 289.243 508.431 287.826C510.526 286.409 512.15 284.396 513.091 282.048C514.033 279.7 514.25 277.124 513.714 274.651C513.179 272.179 511.915 269.924 510.086 268.176C510.086 268.176 510.086 268.176 510.086 268.175L257.382 26.4587L256 25.1364L254.617 26.4587L1.90283 268.187L1.9024 268.187C-0.524743 270.51 -1.92966 273.702 -2.0033 277.061C-2.07694 280.42 -0.81326 283.67 1.50974 286.098C3.83273 288.525 7.02476 289.93 10.3836 290.003C13.7423 290.077 16.9926 288.813 19.4197 286.491C19.4199 286.49 19.42 286.49 19.4201 286.49L256 60.1969ZM428.667 64V62H426.667H341.333C337.974 62 334.752 63.3345 332.377 65.71C330.001 68.0854 328.667 71.3073 328.667 74.6667C328.667 78.0261 330.001 81.2479 332.377 83.6233C334.752 85.9988 337.974 87.3333 341.333 87.3333H403.333V149.333C403.333 152.693 404.668 155.915 407.043 158.29C409.419 160.665 412.641 162 416 162C419.359 162 422.581 160.665 424.957 158.29C427.332 155.915 428.667 152.693 428.667 149.333V64Z" fill="black" stroke="black" stroke-width="4"/>
</g>
<defs>
<clipPath id="clip0_1037_2">
<rect width="512" height="512" fill="white"/>
</clipPath>
</defs>
</svg>
