<svg width="512" height="512" viewBox="0 0 512 512" fill="none" xmlns="http://www.w3.org/2000/svg">
<g clip-path="url(#clip0_1037_13)">
<path d="M256 0C115.2 0 0 115.2 0 256C0 396.8 115.2 512 256 512C397.6 512 512 396.8 512 256C512 115.2 397.6 0 256 0ZM256 496.8C123.2 496.8 15.2 388.8 15.2 256C15.2 123.2 123.2 15.2 256 15.2C388.8 15.2 496.8 123.2 496.8 256C496.8 388.8 388.8 496.8 256 496.8Z" fill="#2B2E63"/>
<path d="M256 15.2C123.2 15.2 15.2002 123.2 15.2002 256C15.2002 388.8 123.2 496.8 256 496.8C388.8 496.8 496.8 388.8 496.8 256C496.8 123.2 388.8 15.2 256 15.2ZM256 101.6C294.4 101.6 326.4 132.8 326.4 172C326.4 210.4 295.2 242.4 256 242.4C217.6 242.4 185.6 211.2 185.6 172C186.4 133.6 217.6 101.6 256 101.6ZM383.2 403.2H128.8C124.8 403.2 120.8 400 120.8 395.2C120.8 320.8 181.6 260 256 260C330.4 260 391.2 320.8 391.2 395.2C391.2 400 388 403.2 383.2 403.2Z" fill="#EDEDED"/>
<path d="M256 15.2C123.2 15.2 15.2002 123.2 15.2002 256C15.2002 388.8 123.2 496.8 256 496.8C388.8 496.8 496.8 388.8 496.8 256C496.8 123.2 388.8 15.2 256 15.2ZM256 480.8C132 480.8 31.2002 380 31.2002 256C31.2002 132 132 31.2 256 31.2C380 31.2 480.8 132 480.8 256C480.8 380 380 480.8 256 480.8Z" fill="#D6D6D6"/>
<path d="M256 260C181.6 260 120.8 320.8 120.8 395.2C120.8 399.2 124 403.2 128.8 403.2H384C388 403.2 392 400 392 395.2C391.2 320.8 330.4 260 256 260ZM136.8 388C140.8 325.6 192.8 276 256 276C319.2 276 371.2 325.6 375.2 388H136.8Z" fill="#2B2E63"/>
<path d="M375.2 388H136.8C140.8 325.6 192.8 276 256 276C319.2 276 371.2 325.6 375.2 388Z" fill="#F26E61"/>
<path d="M256 101.6C217.6 101.6 185.6 132.8 185.6 172C185.6 210.4 216.8 242.4 256 242.4C294.4 242.4 326.4 211.2 326.4 172C326.4 133.6 294.4 101.6 256 101.6ZM256 226.4C225.6 226.4 201.6 202.4 201.6 172C201.6 141.6 226.4 117.6 256 117.6C286.4 117.6 310.4 142.4 310.4 172C310.4 201.6 286.4 226.4 256 226.4Z" fill="#2B2E63"/>
<path d="M310.4 172C310.4 202.4 285.6 226.4 256 226.4C225.6 226.4 201.6 202.4 201.6 172C201.6 141.6 226.4 117.6 256 117.6C286.4 117.6 310.4 141.6 310.4 172Z" fill="#FFE5AB"/>
<path d="M256 276C192.8 276 140.8 325.6 136.8 388H376C371.2 325.6 319.2 276 256 276ZM256 288C308 288 352.8 325.6 361.6 376H150.4C159.2 325.6 204 288 256 288Z" fill="#E15E5A"/>
<path d="M256 117.6C225.6 117.6 201.6 142.4 201.6 172C201.6 201.6 226.4 226.4 256 226.4C286.4 226.4 310.4 202.4 310.4 172C310.4 141.6 286.4 117.6 256 117.6ZM256 214.4C232.8 214.4 213.6 195.2 213.6 172C213.6 148.8 232.8 129.6 256 129.6C279.2 129.6 298.4 148.8 298.4 172C298.4 195.2 279.2 214.4 256 214.4Z" fill="#F0D39A"/>
</g>
<defs>
<clipPath id="clip0_1037_13">
<rect width="512" height="512" fill="white"/>
</clipPath>
</defs>
</svg>
