<svg width="416" height="428" viewBox="0 0 416 428" fill="none" xmlns="http://www.w3.org/2000/svg">
<path d="M366.507 234.907C367.36 228.08 368 221.253 368 214C368 206.747 367.36 199.92 366.507 193.093L411.52 157.893C415.573 154.693 416.64 148.933 414.08 144.24L371.413 70.4267C368.853 65.7333 363.093 64.0267 358.4 65.7333L305.28 87.0667C294.187 78.5333 282.24 71.4933 269.227 66.16L261.12 9.62666C260.48 4.50666 256 0.666656 250.667 0.666656H165.333C160 0.666656 155.52 4.50666 154.88 9.62666L146.773 66.16C133.76 71.4933 121.813 78.7467 110.72 87.0667L57.6 65.7333C52.6933 63.8133 47.1467 65.7333 44.5867 70.4267L1.91999 144.24C-0.853342 148.933 0.426661 154.693 4.47999 157.893L49.4933 193.093C48.64 199.92 48 206.96 48 214C48 221.04 48.64 228.08 49.4933 234.907L4.47999 270.107C0.426661 273.307 -0.640009 279.067 1.91999 283.76L44.5867 357.573C47.1467 362.267 52.9067 363.973 57.6 362.267L110.72 340.933C121.813 349.467 133.76 356.507 146.773 361.84L154.88 418.373C155.52 423.493 160 427.333 165.333 427.333H250.667C256 427.333 260.48 423.493 261.12 418.373L269.227 361.84C282.24 356.507 294.187 349.253 305.28 340.933L358.4 362.267C363.307 364.187 368.853 362.267 371.413 357.573L414.08 283.76C416.64 279.067 415.573 273.307 411.52 270.107L366.507 234.907ZM208 288.667C166.827 288.667 133.333 255.173 133.333 214C133.333 172.827 166.827 139.333 208 139.333C249.173 139.333 282.667 172.827 282.667 214C282.667 255.173 249.173 288.667 208 288.667Z" fill="black"/>
</svg>
